<?xml version="1.0" encoding="UTF-8" standalone="no"?>
<!-- Created with Inkscape (http://www.inkscape.org/) -->

<svg
   width="129mm"
   height="179mm"
   viewBox="0 0 129 179"
   version="1.1"
   id="svg5"
   inkscape:version="1.1 (c68e22c387, 2021-05-23)"
   sodipodi:docname="CartaReverso.svg"
   xmlns:inkscape="http://www.inkscape.org/namespaces/inkscape"
   xmlns:sodipodi="http://sodipodi.sourceforge.net/DTD/sodipodi-0.dtd"
   xmlns="http://www.w3.org/2000/svg"
   xmlns:svg="http://www.w3.org/2000/svg">
  <sodipodi:namedview
     id="namedview7"
     pagecolor="#ffffff"
     bordercolor="#666666"
     borderopacity="1.0"
     inkscape:pageshadow="2"
     inkscape:pageopacity="0.0"
     inkscape:pagecheckerboard="0"
     inkscape:document-units="mm"
     showgrid="false"
     inkscape:zoom="0.70710678"
     inkscape:cx="229.8097"
     inkscape:cy="379.71634"
     inkscape:window-width="1920"
     inkscape:window-height="1017"
     inkscape:window-x="-8"
     inkscape:window-y="-8"
     inkscape:window-maximized="1"
     inkscape:current-layer="layer1"
     width="209mm" />
  <defs
     id="defs2" />
  <g
     inkscape:label="Capa 1"
     inkscape:groupmode="layer"
     id="layer1">
    <rect
       style="fill:#000000;fill-opacity:1;stroke-width:0.364177"
       id="rect7527"
       width="129.16023"
       height="179.07793"
       x="0.042058166"
       y="0.43663979" />
    <path
       style="fill:#e70000;fill-opacity:1;stroke-width:0.358011"
       d="M 0.35185422,89.691168 V 0.17673987 H 64.964158 129.57647 V 89.691168 179.2056 H 64.964158 0.35185422 Z M 84.652116,135.70158 V 119.94704 H 65.680081 46.708047 l -0.09346,15.39648 c -0.05134,8.46807 -0.01564,15.59932 0.07952,15.84724 0.136568,0.35603 4.142346,0.43125 19.065462,0.35805 l 18.892557,-0.0927 z m 1.968799,-32.57679 c 0,-0.0949 -2.311038,-3.921657 -5.135634,-8.503862 -2.824606,-4.582215 -7.53629,-12.237667 -10.470419,-17.012095 -2.93413,-4.774429 -5.415325,-8.680783 -5.513757,-8.680783 -0.09848,0 -2.579637,3.906354 -5.513766,8.680783 -2.93413,4.774428 -7.645814,12.42988 -10.47041,17.012095 -2.824605,4.582205 -5.135638,8.408962 -5.135638,8.503862 0,0.0949 9.503911,0.17257 21.119814,0.17257 11.615893,0 21.11981,-0.0776 21.11981,-0.17257 z M 70.922325,58.185821 c 6.037999,-1.890747 10.517159,-6.210346 12.528681,-12.082365 1.084652,-3.166299 1.162934,-8.593043 0.166663,-11.553172 -2.110538,-6.270888 -6.916513,-10.892025 -13.22078,-12.712315 -3.196797,-0.923044 -7.831427,-0.784593 -11.034542,0.329634 -13.048622,4.539065 -17.090611,21.040516 -7.565621,30.886645 2.373386,2.453396 4.65577,3.892333 7.976971,5.029082 3.115782,1.066457 7.928968,1.110701 11.148628,0.102491 z"
       id="path1622" />
    <path
       style="fill:#e70000;fill-opacity:1;stroke-width:0.329079"
       d="m 63.004639,55.584654 c -7.86664,-1.358244 -13.42117,-7.789836 -13.39417,-15.509116 0.0156,-4.438954 1.2835,-7.587137 4.37001,-10.850015 7.35098,-7.771021 20.29373,-6.068172 25.47652,3.351891 3.93741,7.156489 1.54712,16.341985 -5.39973,20.750302 -2.98488,1.89414 -7.64385,2.8455 -11.05263,2.256938 z"
       id="path5916" />
    <path
       style="fill:#e70000;fill-opacity:1;stroke-width:0.356971"
       d="m 51.209678,96.686169 c 1.31438,-2.13886 4.95998,-8.079433 8.10132,-13.201273 3.14135,-5.12183 5.80351,-9.31542 5.91592,-9.31909 0.11241,-0.004 2.34386,3.48719 4.95878,7.75746 6.43829,10.513993 10.36066,16.882693 10.99261,17.848553 l 0.5255,0.803191 h -16.44196 -16.44196 z"
       id="path5955" />
    <path
       style="fill:#e70000;fill-opacity:1;stroke-width:0.324202"
       d="M 49.883049,136.58829 V 124.1804 h 15.817482 15.817481 v 12.40789 12.40789 H 65.700531 49.883049 Z"
       id="path5994" />
  </g>
</svg>
